<?xml version="1.0" standalone="no"?>
<!DOCTYPE svg PUBLIC "-//W3C//DTD SVG 20010904//EN"
 "http://www.w3.org/TR/2001/REC-SVG-20010904/DTD/svg10.dtd">
<svg version="1.0" xmlns="http://www.w3.org/2000/svg"
 width="300.000000pt" height="138.000000pt" viewBox="0 0 300.000000 138.000000"
 preserveAspectRatio="none">
<metadata>
Created by potrace 1.10, written by Peter Selinger 2001-2011
</metadata>
<g transform="translate(0.000000,138.000000) scale(0.100000,-0.100000)"
fill="#000000" stroke="none">
<path d="M1188 1364 c-7 -6 -76 -16 -108 -16 l-35 1 38 -12 c22 -7 35 -15 31
-19 -10 -10 -54 -10 -54 0 0 4 -16 7 -35 6 -19 -1 -35 2 -35 7 0 5 -4 9 -10 9
-5 0 -7 -6 -4 -14 3 -8 -4 -24 -15 -35 -25 -25 -71 -28 -71 -5 0 8 4 13 10 9
12 -8 50 16 50 32 0 16 -16 17 -25 3 -4 -6 -10 -8 -14 -5 -5 2 -31 -4 -60 -14
-28 -11 -51 -16 -51 -13 0 4 -5 -1 -11 -10 -6 -11 -22 -18 -40 -18 -27 0 -126
-35 -139 -49 -7 -8 -68 -42 -77 -43 -5 -1 -23 -7 -41 -15 -18 -7 -37 -11 -42
-8 -5 3 -27 1 -48 -4 -31 -9 -43 -19 -58 -51 -10 -22 -23 -40 -28 -40 -4 0
-17 -11 -28 -25 -11 -14 -24 -23 -29 -20 -5 4 -9 1 -9 -4 0 -6 -4 -10 -8 -8
-5 1 -26 -15 -48 -37 -21 -21 -49 -45 -62 -54 -17 -11 -20 -17 -11 -23 9 -5 2
-18 -24 -44 -20 -20 -37 -41 -37 -46 0 -5 -10 -14 -23 -20 -19 -9 -23 -19 -25
-69 -3 -58 -2 -62 54 -142 31 -46 66 -90 78 -98 21 -15 130 -24 121 -10 -3 4
-27 11 -53 15 -68 9 -79 18 -63 48 7 13 18 24 25 24 27 -2 106 16 106 24 0 5
11 7 25 3 24 -6 37 10 14 18 -17 6 -129 -23 -129 -33 0 -5 -4 -9 -9 -9 -5 0
-8 11 -7 25 0 14 4 25 9 25 4 0 14 18 23 39 16 40 40 55 66 40 8 -4 40 -9 72
-10 58 -3 81 -15 54 -30 -8 -5 -23 -30 -33 -56 -10 -26 -29 -63 -43 -81 -24
-31 -24 -34 -8 -50 15 -15 16 -15 11 -1 -4 10 5 32 19 53 14 21 28 47 32 59 4
12 22 43 40 68 19 26 34 49 34 52 0 3 -10 5 -22 5 -13 0 -66 3 -118 6 l-95 5
-27 -45 c-16 -25 -28 -51 -28 -58 0 -7 -9 -22 -20 -34 -11 -11 -17 -28 -14
-36 3 -9 3 -16 0 -16 -4 0 -11 12 -17 27 -8 21 -6 30 10 47 17 20 61 98 61
111 0 3 -17 5 -37 4 -21 -2 -50 1 -65 5 -18 5 -28 4 -28 -3 0 -10 17 -16 70
-25 14 -3 27 -5 29 -5 2 -1 -3 -9 -12 -19 -8 -9 -20 -30 -26 -45 -13 -32 -36
-31 -35 2 0 11 -5 21 -12 21 -8 0 -11 6 -7 16 4 11 13 14 30 9 17 -4 22 -2 18
5 -4 6 -17 10 -28 9 -39 -4 -54 9 -52 46 0 19 7 40 14 47 11 11 11 9 2 -10 -7
-13 -10 -28 -7 -35 2 -7 8 -2 12 11 4 16 12 21 24 17 10 -3 34 -6 54 -7 36 -1
47 -12 24 -21 -10 -4 -10 -6 0 -6 7 -1 21 7 31 17 18 16 18 19 -2 96 -16 64
-17 80 -6 86 19 12 31 2 24 -21 -4 -11 2 -51 11 -89 17 -64 21 -70 44 -70 14
0 32 6 39 13 11 10 13 9 8 -5 -9 -25 10 -22 23 3 11 20 10 20 -35 14 -25 -4
-45 -3 -43 1 1 5 -4 26 -11 46 -7 21 -10 42 -6 48 4 6 3 10 -2 9 -19 -3 -25 2
-14 15 8 10 8 21 1 41 -13 33 -12 34 29 37 18 1 35 6 38 12 3 5 -8 7 -25 4
-45 -6 -22 19 30 33 29 7 38 14 34 25 -4 12 -1 14 14 9 16 -5 20 -2 18 17 -2
12 2 23 9 23 15 0 51 24 72 48 18 19 39 24 23 4 -8 -9 2 -12 46 -13 54 0 55 0
27 12 -30 12 -21 23 18 21 17 0 19 -4 21 -29 1 -7 5 -16 11 -20 6 -5 5 -12 -3
-20 -18 -18 -15 -23 13 -24 25 -2 35 19 15 31 -15 9 -41 75 -34 86 10 17 22 9
33 -21 5 -16 13 -30 16 -30 3 0 3 5 0 11 -4 6 2 13 14 16 11 3 19 9 16 13 -3
5 -14 6 -25 3 -13 -4 -20 0 -20 10 0 23 27 40 55 33 15 -4 25 -2 25 5 0 6 6 9
13 6 6 -2 11 -9 10 -14 -1 -5 16 -10 38 -11 53 -2 42 13 -21 29 -64 16 -46 27
41 25 63 -2 67 -1 58 16 -6 11 -6 18 0 18 12 0 41 -29 41 -41 0 -11 66 -149
107 -225 16 -28 55 -107 88 -176 l60 -125 42 1 c24 1 43 4 43 9 0 4 5 7 11 7
5 0 7 -4 4 -10 -4 -6 20 -9 64 -8 38 2 67 6 65 10 -3 5 0 8 5 8 6 0 11 -4 11
-10 0 -5 9 -10 20 -10 11 0 20 5 20 11 0 8 4 8 14 0 9 -7 17 -8 20 -2 8 12 -3
41 -15 41 -5 0 -8 3 -7 8 9 25 -173 334 -209 355 -7 5 -11 12 -8 18 3 5 0 6
-8 3 -8 -3 -18 -1 -22 5 -3 6 -11 11 -16 11 -17 0 2 -21 28 -31 13 -5 21 -13
18 -19 -3 -5 0 -10 8 -10 17 0 31 -40 14 -40 -7 0 -3 -7 8 -16 11 -8 20 -20
20 -27 0 -7 9 -13 20 -15 22 -4 58 -69 44 -78 -5 -3 -9 2 -9 10 0 9 -4 16 -9
16 -5 0 -13 9 -16 21 -4 11 -9 18 -11 16 -6 -6 18 -60 30 -69 6 -4 16 -2 22 3
8 6 14 4 18 -7 8 -21 9 -20 -13 -21 -11 -1 -25 4 -31 12 -6 7 -19 11 -29 8
-10 -2 -46 7 -81 21 -35 14 -71 26 -80 26 -9 0 -25 7 -36 15 -28 21 0 20 69
-4 30 -11 58 -17 61 -14 14 14 4 23 -25 23 -35 0 -127 28 -135 41 -3 5 -10 9
-16 9 -6 0 -4 -8 5 -18 10 -10 17 -24 17 -31 0 -6 11 -16 25 -21 14 -5 25 -15
25 -21 0 -6 9 -9 20 -6 11 3 18 2 16 -2 -4 -6 93 -32 134 -36 34 -3 66 -19 87
-43 12 -14 20 -29 18 -33 -3 -3 4 -14 15 -24 25 -22 26 -44 3 -44 -10 0 -58
-2 -106 -4 -71 -3 -87 -1 -83 10 3 7 -1 13 -9 13 -8 0 -14 -5 -13 -11 4 -16
-50 -18 -56 -2 -3 6 0 14 7 17 7 2 4 5 -7 5 -13 1 -17 6 -13 20 3 14 1 18 -9
14 -9 -3 -14 1 -14 12 0 9 -8 27 -18 40 -10 12 -24 42 -32 66 -7 24 -26 63
-42 87 -15 24 -28 46 -28 50 0 4 -9 24 -19 44 -11 19 -17 39 -14 42 4 3 1 6
-5 6 -6 0 -18 14 -26 32 -15 28 -15 33 0 49 24 26 65 30 96 8 15 -11 29 -15
32 -10 4 5 -2 12 -12 15 -10 3 -18 15 -19 26 -2 17 4 20 36 20 20 0 42 -5 49
-12 8 -8 15 -8 27 2 12 10 18 8 35 -11 11 -13 27 -37 35 -54 25 -51 65 -115
144 -235 112 -167 155 -249 140 -266 -8 -10 -8 -14 0 -14 6 0 11 4 11 10 0 6
9 6 23 1 12 -4 43 -11 70 -15 39 -6 52 -4 73 13 20 16 31 18 45 10 13 -7 19
-6 19 1 0 6 5 8 10 5 8 -5 7 -11 -1 -21 -9 -11 -7 -14 11 -14 14 0 20 5 17 13
-4 10 2 13 19 9 13 -2 24 -1 24 3 0 15 -82 161 -97 172 -17 13 -37 8 -27 -8 3
-5 9 -7 14 -4 4 3 7 -3 6 -13 0 -9 4 -16 11 -15 16 3 12 -35 -4 -42 -8 -2 -16
2 -19 10 -4 8 -14 15 -23 15 -9 0 -23 9 -31 20 -14 20 -37 29 -25 10 3 -5 2
-10 -4 -10 -5 0 -11 10 -13 22 -4 29 -28 36 -28 8 0 -18 -3 -20 -14 -10 -8 6
-12 19 -10 28 4 13 2 12 -7 -2 -10 -16 -9 -21 6 -32 10 -7 22 -11 26 -8 5 3 9
0 9 -5 0 -6 3 -10 8 -9 17 6 132 -56 128 -68 -3 -8 1 -11 9 -8 8 3 11 12 9 19
-3 7 -1 16 5 20 7 3 11 -2 11 -13 0 -11 7 -23 16 -26 8 -3 13 -10 10 -15 -6
-9 -55 -7 -128 5 -28 4 -38 2 -46 -12 -9 -16 -11 -16 -42 0 -25 12 -35 13 -41
4 -11 -18 -52 76 -45 104 3 13 3 17 0 11 -8 -19 -22 -16 -29 7 -3 11 -22 42
-41 69 -19 28 -34 54 -34 57 0 4 -8 13 -17 20 -34 24 -2 28 94 11 52 -10 98
-16 100 -14 7 8 -127 37 -170 37 -41 0 -46 3 -77 48 -19 26 -38 50 -43 53 -5
4 3 9 17 13 14 3 26 11 26 16 0 13 -13 13 -26 0 -13 -13 -25 -3 -62 52 -41 60
-41 71 1 63 30 -7 31 -6 12 8 -11 9 -31 14 -45 11 -22 -5 -23 -4 -6 6 13 9 24
9 43 1 30 -14 36 -14 27 1 -5 8 12 9 67 4 41 -4 80 -8 87 -8 6 -1 12 -5 12
-10 0 -4 5 -8 11 -8 6 0 9 7 6 14 -9 24 20 7 40 -22 9 -15 18 -29 18 -32 1
-20 87 -140 152 -212 24 -26 43 -52 43 -58 0 -6 22 -43 49 -83 65 -98 110
-180 104 -194 -7 -18 24 -22 174 -21 l141 2 -18 48 c-10 26 -31 69 -48 96 -16
26 -32 57 -36 69 -4 11 -16 29 -28 39 l-21 19 16 -30 c22 -45 37 -105 26 -105
-6 0 -7 -5 -4 -11 5 -6 12 -4 21 8 12 17 13 17 9 -4 -2 -15 2 -24 16 -28 21
-7 26 -30 8 -40 -6 -4 -8 -13 -5 -21 4 -9 -2 -14 -17 -14 -18 0 -19 2 -7 10
11 7 4 10 -25 9 -37 0 -38 -1 -18 -12 21 -12 20 -12 -16 -12 -22 0 -37 3 -35
7 3 5 0 8 -5 8 -6 0 -11 -3 -11 -7 0 -5 -13 -8 -28 -8 -23 0 -28 4 -24 18 3
12 -1 17 -14 17 -16 0 -17 -2 -4 -10 8 -5 11 -10 7 -10 -5 0 -20 9 -34 20 -14
11 -22 20 -18 20 4 0 -4 15 -19 34 -14 19 -26 38 -26 43 0 4 4 2 9 -6 5 -7 14
-10 20 -7 16 10 3 26 -21 26 -14 0 -18 5 -14 16 3 8 2 12 -4 9 -10 -6 -14 7
-11 32 1 7 -5 10 -13 7 -10 -4 -16 4 -21 25 -4 17 -10 29 -15 26 -4 -3 -13 8
-19 23 -7 16 -31 48 -55 73 -30 29 -41 48 -35 55 6 8 4 14 -7 18 -10 4 -14 12
-10 22 5 14 4 15 -8 5 -12 -10 -17 -8 -27 11 -7 13 -15 25 -18 28 -4 3 -17 18
-29 34 -17 22 -19 32 -11 42 9 11 7 14 -10 14 -11 0 -21 4 -21 9 0 17 105 4
147 -18 28 -14 52 -19 68 -15 27 7 25 23 -3 23 -25 0 -45 5 -67 20 -17 11 -15
12 22 7 47 -7 113 -35 113 -48 0 -5 5 -6 11 -2 6 3 16 0 21 -7 7 -10 7 -7 3 9
-7 25 10 31 19 6 4 -10 13 -13 25 -9 11 3 22 1 26 -5 3 -5 -2 -10 -13 -10 -21
0 -26 -26 -6 -34 7 -3 25 -23 39 -45 17 -27 30 -39 40 -35 12 5 8 14 -20 42
-19 20 -35 40 -35 45 0 4 -4 5 -10 2 -5 -3 -10 -4 -10 -2 0 5 77 47 85 47 3 0
5 -5 5 -10 0 -6 -14 -17 -30 -24 l-30 -12 35 -17 c20 -9 40 -27 45 -39 8 -21
9 -21 10 -3 0 12 3 16 8 9 8 -13 86 -54 101 -54 5 0 8 12 5 26 -4 21 -2 25 11
20 9 -3 23 -6 31 -6 8 0 14 -4 14 -10 0 -5 -8 -7 -17 -3 -19 7 -18 5 11 -17
13 -10 17 -10 12 -2 -4 7 -2 12 8 12 18 0 30 -17 16 -22 -6 -2 10 -18 36 -36
50 -36 54 -53 5 -28 -16 9 -38 16 -48 16 -10 0 -30 6 -45 14 -14 8 -49 17 -77
21 -27 4 -55 13 -62 21 -10 12 -43 11 -58 -2 -4 -3 113 -164 146 -201 12 -14
25 -34 29 -45 3 -12 21 -47 40 -79 19 -31 34 -64 34 -72 0 -25 29 -48 48 -38
9 5 26 5 40 0 14 -5 64 -9 112 -7 l88 2 -18 51 c-10 29 -30 74 -44 101 -14 27
-26 52 -26 56 0 18 -63 108 -76 108 -9 0 -3 -16 19 -52 18 -29 41 -73 52 -98
10 -25 25 -52 32 -61 7 -8 13 -22 13 -31 0 -8 3 -18 7 -22 11 -11 12 -36 2
-36 -5 0 -12 6 -15 14 -5 12 -27 24 -56 30 -3 0 -10 4 -14 9 -4 4 -14 7 -21 7
-11 0 -11 -3 -1 -14 7 -8 15 -13 18 -11 3 1 16 -2 30 -7 l25 -10 -23 -9 c-19
-7 -50 -7 -137 4 -11 1 -27 16 -35 32 -8 17 -25 47 -38 68 -26 45 -28 54 -7
37 8 -7 15 -19 15 -26 0 -13 13 -19 34 -15 4 1 14 -4 22 -10 8 -6 14 -7 14 -2
0 9 -16 22 -68 53 -20 12 -30 25 -26 32 4 6 3 8 -4 4 -5 -3 -20 10 -32 29 -12
20 -27 41 -33 48 -25 27 -51 61 -37 50 8 -7 23 -13 33 -13 24 0 81 -47 65 -52
-7 -3 -5 -7 6 -11 11 -5 15 -3 10 5 -5 8 -2 9 11 4 15 -5 16 -4 5 9 -7 8 -16
15 -21 15 -5 0 -18 9 -28 19 -11 11 -35 24 -53 29 -30 8 -68 39 -107 85 -12
15 -11 17 7 14 11 -2 26 -8 34 -13 7 -6 51 -20 98 -32 47 -12 108 -28 135 -36
28 -7 52 -11 55 -8 3 2 -1 7 -7 9 -7 3 -13 11 -13 18 0 7 -18 28 -40 45 -22
17 -40 38 -40 45 0 7 -8 16 -17 18 -14 4 -15 5 -2 6 8 0 34 -15 57 -35 23 -19
42 -31 42 -25 0 7 9 7 26 -1 15 -7 21 -14 15 -16 -6 -2 5 -15 25 -28 20 -14
41 -23 48 -21 6 2 -4 12 -22 21 -19 10 -31 20 -28 23 3 3 23 -6 44 -21 21 -14
43 -26 49 -26 6 0 17 -7 24 -17 13 -14 11 -14 -19 1 -19 10 -36 15 -39 12 -3
-3 6 -11 20 -17 15 -7 24 -17 20 -22 -4 -6 0 -8 10 -4 10 3 17 2 17 -3 0 -6 8
-10 17 -10 16 0 16 -1 1 -16 -15 -16 -19 -16 -52 0 -20 9 -36 21 -36 27 0 12
-60 49 -80 49 -10 -1 -6 -8 11 -23 32 -27 89 -115 89 -137 0 -20 31 -50 51
-50 11 1 11 3 -2 13 -18 14 -43 57 -36 63 3 3 12 -2 20 -11 9 -8 23 -15 32
-15 9 0 13 -4 10 -10 -3 -5 0 -10 8 -10 7 0 23 -9 35 -20 12 -11 29 -20 39
-20 25 0 -24 39 -99 80 -55 30 -75 46 -66 56 3 2 19 -3 37 -12 30 -15 33 -15
46 2 12 15 15 16 16 4 1 -8 1 -19 0 -23 -1 -5 3 -6 8 -3 5 3 15 -2 22 -11 12
-14 12 -16 -1 -9 -14 7 11 -16 35 -32 14 -10 35 -49 35 -65 0 -8 9 -22 20 -32
11 -10 20 -24 20 -32 0 -7 5 -13 10 -13 6 0 10 -7 10 -16 0 -20 -29 -11 -85
25 -22 14 -51 31 -65 38 -14 7 -35 20 -48 29 -21 15 -22 15 -16 0 3 -9 10 -16
16 -16 5 0 7 -4 4 -9 -3 -4 2 -17 10 -27 14 -17 15 -17 10 -1 -7 21 1 21 39
-4 17 -10 39 -23 50 -28 21 -10 19 -11 -43 -14 -20 -1 -32 3 -32 11 0 17 -17
15 -24 -4 -3 -8 -2 -12 4 -9 6 3 10 0 10 -7 0 -11 23 -14 104 -13 95 0 103 2
90 16 -8 8 -14 22 -14 29 0 8 -12 27 -27 43 -16 17 -22 27 -15 23 23 -14 11 9
-43 79 -29 38 -51 72 -49 75 3 2 33 -26 67 -63 34 -37 72 -70 85 -72 13 -2 40
-18 61 -35 22 -16 43 -30 49 -30 5 0 13 -7 16 -16 3 -8 10 -13 15 -10 5 4 26
-10 46 -29 20 -20 40 -33 45 -30 6 4 10 -1 10 -9 0 -9 -6 -16 -14 -16 -10 0
-13 -10 -10 -38 l5 -37 -20 23 c-12 14 -22 19 -26 12 -4 -6 -14 -9 -22 -6 -9
4 -12 2 -7 -7 5 -8 2 -8 -9 2 -14 11 -18 11 -23 -2 -3 -9 -17 -23 -31 -32 -21
-14 -27 -15 -35 -4 -8 11 -9 10 -5 -3 4 -11 -4 -21 -26 -31 -46 -23 -46 -12 1
35 23 22 42 36 42 30 0 -7 7 -12 15 -12 21 0 19 13 -4 27 -17 11 -22 9 -39
-14 -10 -14 -22 -22 -25 -16 -3 5 5 21 19 36 25 27 44 35 44 17 0 -5 7 -6 17
-3 11 4 14 3 9 -5 -4 -7 -3 -12 2 -12 6 0 12 6 15 13 2 7 21 12 45 11 23 0 39
3 36 8 -3 4 -32 7 -65 6 -32 -2 -60 1 -62 5 -4 13 -56 -32 -72 -64 -14 -26
-14 -28 2 -23 13 4 11 0 -6 -16 -13 -11 -29 -24 -36 -28 -6 -4 -35 -41 -64
-83 -47 -69 -91 -121 -91 -107 0 3 14 22 30 43 17 21 30 44 30 51 0 7 4 14 8
16 4 1 18 18 31 36 25 35 20 61 -5 27 -8 -11 -23 -30 -34 -42 -10 -12 -26 -35
-34 -51 -8 -16 -22 -32 -31 -36 -9 -3 -13 -10 -10 -16 3 -6 -1 -7 -10 -4 -10
4 -14 2 -10 -7 3 -8 -4 -20 -16 -27 -14 -9 -19 -9 -14 -2 4 6 -10 0 -31 -14
-49 -32 -136 -77 -141 -72 -2 2 24 20 59 40 72 42 155 106 138 106 -7 0 -43
-23 -81 -50 -70 -51 -94 -63 -64 -33 9 9 35 40 57 70 22 29 45 53 50 53 6 0 8
7 4 15 -3 8 0 19 7 25 7 6 28 24 47 40 l35 31 -30 -6 c-25 -5 -27 -4 -12 5 9
6 17 17 17 24 0 7 9 23 20 36 14 16 17 26 9 30 -6 4 26 7 70 7 45 0 81 -4 81
-7 0 -10 -41 -62 -59 -76 -12 -9 -12 -12 2 -17 10 -4 23 7 41 33 14 22 26 43
26 46 0 4 7 16 17 26 21 23 13 31 -20 19 -14 -6 -27 -7 -29 -3 -2 4 -34 5 -72
2 l-70 -5 -31 -70 c-45 -105 -123 -220 -208 -308 -15 -16 -25 -32 -23 -35 10
-9 -68 -57 -91 -56 -12 1 -20 -2 -17 -7 6 -11 -29 -29 -58 -29 -16 0 -19 -3
-10 -8 9 -6 5 -12 -14 -21 -15 -6 -29 -9 -32 -7 -3 3 3 8 12 12 9 3 16 13 16
22 0 13 -4 12 -22 -5 -13 -11 -31 -23 -41 -26 -10 -4 -15 -12 -11 -18 4 -8 0
-9 -15 -4 -14 4 -34 -1 -57 -14 -19 -12 -45 -21 -57 -20 -20 1 -20 2 3 8 14 4
31 19 38 33 9 20 19 26 37 23 14 -1 23 0 20 3 -2 3 1 12 8 20 8 10 2 9 -17 -4
l-29 -19 17 28 c12 17 27 27 42 27 13 0 24 5 24 11 0 6 -9 8 -22 3 -21 -6 -22
-6 -6 17 8 13 21 25 27 25 22 3 23 4 11 19 -12 15 -4 20 22 16 5 0 7 2 6 7 -4
19 16 41 43 47 16 4 29 10 29 13 0 4 21 16 47 27 83 35 203 94 203 99 0 12
-223 -88 -267 -120 -13 -9 -23 -12 -23 -6 0 6 5 14 10 17 6 4 8 11 4 16 -3 5
0 8 7 7 7 -2 13 2 14 7 0 6 4 16 8 23 5 6 5 17 1 24 -4 6 -3 8 4 4 6 -3 14 4
18 16 9 31 47 64 113 100 31 17 67 38 81 48 27 19 130 43 130 30 0 -4 -6 -13
-14 -19 -8 -7 -13 -21 -11 -32 2 -11 -2 -22 -10 -26 -8 -3 -15 -12 -15 -20 0
-27 -42 -91 -64 -97 -14 -4 -17 -9 -9 -14 13 -8 -28 -62 -47 -62 -6 0 -9 -4
-6 -8 8 -13 -44 -56 -74 -63 -24 -5 -24 -5 6 -10 28 -5 36 1 87 61 99 117 195
293 169 309 -5 3 -65 4 -132 1 l-122 -5 -41 -76 c-23 -42 -47 -83 -53 -90 -7
-8 -26 -43 -44 -79 -18 -36 -50 -86 -71 -111 -22 -26 -39 -50 -39 -53 0 -4 -9
-17 -21 -29 -11 -12 -34 -42 -50 -67 -17 -25 -33 -44 -37 -43 -4 1 -13 -3 -19
-9 -24 -20 -13 8 12 32 14 13 25 27 25 32 0 14 -30 9 -36 -6 -3 -8 -12 -12
-20 -9 -8 3 -11 10 -7 16 3 6 -4 3 -18 -6 -13 -9 -31 -17 -41 -17 -9 0 -19 -4
-23 -9 -3 -6 10 -5 31 0 20 6 43 8 51 5 14 -6 14 -9 -1 -25 -17 -18 -16 -20 1
-30 10 -6 14 -10 8 -11 -5 0 -16 4 -24 9 -8 5 -27 3 -48 -5 -21 -9 -51 -13
-78 -10 -28 4 -45 1 -47 -6 -5 -13 -118 -25 -118 -12 0 5 18 28 40 52 39 42
44 62 14 62 -8 0 -14 -8 -14 -17 0 -10 -16 -40 -36 -66 -29 -40 -39 -47 -57
-41 -12 4 -25 11 -28 16 -3 5 -9 9 -13 9 -23 -3 -36 0 -31 9 3 6 22 10 41 10
19 0 34 5 34 10 0 16 -66 12 -80 -5 -10 -12 -10 -18 0 -30 11 -13 7 -15 -24
-15 -25 0 -36 4 -36 15 0 8 -4 15 -10 15 -5 0 -7 -7 -4 -15 5 -12 -5 -15 -55
-15 -57 0 -61 2 -61 23 0 13 5 28 11 34 12 12 4 33 -12 33 -6 0 -8 -9 -4 -19
3 -11 1 -22 -5 -26 -5 -3 -10 -1 -10 6 0 7 -10 9 -29 6 -22 -5 -34 0 -51 19
-25 26 -46 30 -70 13 -12 -8 -10 -9 7 -4 12 3 24 1 28 -5 3 -6 11 -8 16 -4 5
3 9 2 8 -3 -3 -20 2 -34 11 -28 6 3 10 2 10 -4 0 -16 -18 -22 -23 -9 -3 10 -8
10 -21 -1 -15 -13 -19 -13 -27 0 -7 12 -9 12 -9 -1 0 -13 -2 -13 -9 -1 -5 8
-18 12 -31 8 -13 -3 -23 0 -26 8 -3 8 -12 11 -19 9 -7 -3 -16 -1 -20 5 -3 6
-17 11 -31 11 -21 0 -24 3 -19 21 5 15 4 19 -5 14 -20 -12 -70 -17 -70 -6 0 6
7 8 15 5 8 -4 15 -4 15 -1 0 8 -131 69 -137 63 -3 -3 19 -16 48 -30 l54 -26
-48 4 c-32 3 -63 14 -90 33 -23 15 -50 30 -60 33 -10 3 -19 9 -20 15 -1 5 -23
21 -50 34 -26 14 -47 31 -47 38 0 7 -7 14 -15 14 -28 3 -86 27 -70 30 6 1 -3
4 -20 8 -21 5 -29 12 -27 24 2 11 -2 15 -13 11 -20 -8 -47 15 -40 34 5 13 3
13 -12 1 -9 -8 -14 -9 -11 -4 8 13 -8 42 -18 33 -13 -14 17 -64 49 -83 18 -10
35 -23 39 -29 3 -5 14 -11 24 -12 9 -2 20 -8 24 -14 4 -7 10 -11 14 -11 10 2
104 -47 108 -56 12 -29 217 -133 261 -133 13 0 32 -7 43 -15 12 -8 23 -12 26
-10 2 2 36 -6 75 -20 65 -22 126 -35 178 -39 11 -1 25 -4 30 -7 20 -11 471
-10 501 1 15 6 80 13 144 15 130 5 130 5 223 39 38 14 72 25 75 24 8 -3 90 43
134 73 15 11 35 20 45 22 10 1 33 13 51 26 18 12 39 24 46 25 8 1 20 7 27 12
17 13 145 74 156 74 9 0 121 119 116 124 -8 8 59 48 95 58 20 5 44 16 52 23 8
7 37 24 64 38 41 22 51 24 62 12 8 -7 19 -16 26 -18 10 -4 8 -9 -4 -20 -22
-18 -23 -49 -2 -90 20 -38 31 -47 61 -47 60 0 90 131 50 218 -37 79 -55 99
-92 106 -19 4 -35 11 -35 17 0 6 -4 8 -9 4 -5 -3 -46 19 -90 49 -43 30 -82 52
-85 48 -4 -3 -29 17 -57 46 -28 29 -52 52 -55 52 -12 0 -111 82 -133 110 -13
16 -29 30 -36 30 -8 0 -27 12 -44 26 -17 14 -31 23 -31 19 0 -3 -25 8 -55 24
-30 17 -56 30 -58 29 -5 -3 -82 25 -93 33 -6 5 -13 6 -17 3 -3 -3 -16 0 -29 7
-12 7 -28 12 -34 11 -11 -2 -76 25 -123 53 -16 9 -31 11 -40 5 -10 -5 -22 -4
-31 4 -23 19 -70 37 -70 26 0 -10 -43 -4 -85 13 -28 11 -85 13 -243 8 -35 -1
-69 2 -75 6 -11 7 -153 14 -159 7z m-318 -84 c-8 -5 -12 -10 -7 -11 4 -1 12
-3 17 -4 6 -1 13 -3 16 -4 4 0 1 -8 -7 -17 -11 -14 -14 -13 -25 8 -18 31 -17
38 4 38 14 0 15 -2 2 -10z m1070 -40 c0 -5 15 -16 34 -24 18 -8 37 -19 41 -26
9 -14 -4 -28 -13 -14 -4 6 -19 14 -34 18 -15 3 -40 17 -55 31 l-28 24 28 1
c15 0 27 -4 27 -10z m-1532 -125 c-10 -8 -48 -25 -48 -21 0 12 33 36 41 30 6
-3 9 -7 7 -9z m1937 -125 c3 -5 2 -10 -4 -10 -5 0 -13 5 -16 10 -3 6 -2 10 4
10 5 0 13 -4 16 -10z m-2181 -188 c7 -26 6 -36 -5 -43 -20 -13 -31 -11 -59 11
-19 14 -22 22 -14 30 9 9 17 9 34 0 31 -17 37 -4 9 20 l-24 21 25 -3 c18 -2
27 -12 34 -36z m1916 -52 c0 -5 -4 -10 -10 -10 -5 0 -10 5 -10 10 0 6 5 10 10
10 6 0 10 -4 10 -10z m-470 -30 c8 -5 11 -10 5 -10 -5 0 -17 5 -25 10 -8 5
-10 10 -5 10 6 0 17 -5 25 -10z m1270 -10 c0 -5 -7 -7 -15 -4 -8 4 -15 8 -15
10 0 2 7 4 15 4 8 0 15 -4 15 -10z m45 -59 c2 -11 11 -30 19 -44 9 -13 13 -27
9 -30 -3 -4 -2 -7 3 -7 6 0 9 -12 8 -27 -2 -38 -2 -38 -24 -12 -10 13 -19 18
-20 12 0 -7 4 -13 9 -13 14 0 23 -51 12 -64 -6 -7 -8 -16 -4 -19 3 -4 -3 -7
-15 -7 -25 0 -50 23 -58 55 -10 39 5 49 34 23 25 -23 22 -8 -5 23 -13 15 -11
19 8 33 19 13 21 18 10 28 -8 7 -11 8 -8 3 3 -6 -4 -17 -15 -24 -19 -12 -20
-11 -14 6 4 10 10 33 13 51 3 17 9 32 14 32 5 0 6 8 3 18 -5 16 -5 16 6 -1 6
-9 13 -26 15 -36z m-702 -33 c4 -10 7 -10 18 0 16 15 33 16 23 1 -3 -6 -23
-18 -43 -26 -20 -8 -48 -24 -63 -34 -39 -28 -49 -23 -31 14 24 49 33 57 63 57
16 0 30 -6 33 -12z m-123 -448 c0 -5 -5 -10 -11 -10 -5 0 -7 5 -4 10 3 6 8 10
11 10 2 0 4 -4 4 -10z m-1000 -119 c0 -11 -30 -19 -47 -14 -24 8 -13 23 17 23
17 0 30 -4 30 -9z"/>
<path d="M2870 511 c0 -11 4 -22 9 -25 4 -3 6 6 3 19 -5 30 -12 33 -12 6z"/>
<path d="M1245 1310 c3 -5 8 -10 11 -10 2 0 4 5 4 10 0 6 -5 10 -11 10 -5 0
-7 -4 -4 -10z"/>
<path d="M1292 1304 c-11 -12 -8 -14 15 -14 15 0 24 4 18 8 -5 4 -12 10 -15
14 -3 3 -11 0 -18 -8z"/>
<path d="M1507 1293 c-4 -3 -7 -11 -7 -17 0 -6 5 -5 12 2 6 6 9 14 7 17 -3 3
-9 2 -12 -2z"/>
<path d="M1530 1289 c0 -5 5 -7 10 -4 6 3 10 8 10 11 0 2 -4 4 -10 4 -5 0 -10
-5 -10 -11z"/>
<path d="M1190 1279 c0 -5 5 -7 10 -4 6 3 10 8 10 11 0 2 -4 4 -10 4 -5 0 -10
-5 -10 -11z"/>
<path d="M1695 1280 c-4 -6 -11 -8 -16 -5 -5 3 -6 -1 -3 -9 7 -18 34 -10 34
10 0 16 -6 18 -15 4z"/>
<path d="M1394 1269 c-3 -6 -2 -15 4 -21 6 -6 11 -2 15 11 5 22 -7 29 -19 10z"/>
<path d="M1061 1262 c-1 -8 8 -16 19 -19 10 -3 22 -14 25 -24 4 -10 12 -19 18
-19 8 0 7 -3 -2 -9 -8 -5 -9 -11 -3 -15 6 -3 13 2 17 13 7 23 -22 61 -46 61
-10 0 -20 6 -22 13 -4 9 -6 9 -6 -1z"/>
<path d="M1552 1258 c-8 -10 -4 -13 19 -15 15 -1 31 3 35 9 5 7 2 9 -8 5 -9
-3 -20 -1 -25 4 -6 6 -14 5 -21 -3z"/>
<path d="M1210 1245 c7 -8 17 -15 22 -15 6 0 5 7 -2 15 -7 8 -17 15 -22 15 -6
0 -5 -7 2 -15z"/>
<path d="M935 1240 c-32 -8 -27 -12 17 -15 18 -1 25 2 21 12 -3 7 -6 12 -7 12
0 -1 -14 -5 -31 -9z"/>
<path d="M1623 1235 c0 -14 11 -19 31 -16 4 1 19 -5 32 -14 28 -18 40 -20 22
-2 -11 10 -45 29 -79 44 -3 1 -6 -4 -6 -12z"/>
<path d="M1732 1230 c9 -14 21 -24 27 -23 6 2 8 -3 5 -11 -3 -8 0 -17 7 -22 8
-4 10 -3 5 4 -11 19 9 14 34 -8 13 -11 20 -20 16 -20 -4 0 2 -13 13 -29 12
-16 21 -34 21 -39 0 -6 3 -12 8 -14 16 -7 72 -80 67 -88 -3 -4 2 -11 10 -14
12 -4 14 0 9 22 -4 15 -13 33 -22 40 -9 6 -12 12 -8 12 9 0 -53 82 -71 93 -7
4 -13 15 -13 22 0 8 -4 15 -9 15 -4 0 -20 11 -35 25 -16 14 -40 33 -54 43
l-27 17 17 -25z"/>
<path d="M1265 1223 c11 -3 25 -12 32 -20 10 -13 17 -14 42 -3 17 7 28 16 25
21 -3 5 -14 5 -25 -1 -13 -7 -25 -7 -38 0 -11 5 -28 9 -38 9 -15 -1 -15 -2 2
-6z"/>
<path d="M1430 1221 c0 -5 6 -12 13 -14 6 -3 -1 -6 -16 -6 -18 -1 -26 -5 -21
-12 3 -6 17 -8 31 -4 23 5 25 4 19 -20 -6 -23 -4 -26 14 -20 11 3 20 3 20 -2
0 -5 16 -25 36 -46 20 -20 32 -37 28 -37 -5 0 -4 -4 1 -8 17 -12 61 -66 48
-59 -6 4 -13 3 -15 -3 -1 -5 -18 -13 -37 -16 -20 -4 -32 -3 -28 2 3 5 -7 9
-21 8 -41 -3 -41 -5 13 -20 60 -16 68 -17 60 -4 -3 6 1 10 9 10 9 0 16 -8 16
-17 0 -15 1 -15 13 1 12 17 14 17 20 2 4 -9 2 -16 -4 -16 -24 0 0 -25 25 -26
25 -1 26 0 11 20 -8 12 -24 38 -35 59 -11 20 -24 37 -29 37 -4 0 -23 23 -41
51 -18 28 -47 65 -64 83 -17 17 -30 33 -29 37 1 3 -7 10 -18 17 -10 7 -19 8
-19 3z"/>
<path d="M800 1199 c0 -5 5 -7 10 -4 6 3 10 8 10 11 0 2 -4 4 -10 4 -5 0 -10
-5 -10 -11z"/>
<path d="M980 1200 c0 -5 7 -10 16 -10 8 0 12 5 9 10 -3 6 -10 10 -16 10 -5 0
-9 -4 -9 -10z"/>
<path d="M630 1190 c-9 -6 -10 -10 -3 -10 6 0 15 5 18 10 8 12 4 12 -15 0z"/>
<path d="M1163 1185 c0 -8 4 -12 9 -9 5 3 6 10 3 15 -9 13 -12 11 -12 -6z"/>
<path d="M1615 1190 c-19 -8 -19 -9 2 -9 12 -1 25 4 28 9 7 12 -2 12 -30 0z"/>
<path d="M824 1165 c-26 -29 -39 -59 -21 -48 6 4 20 17 30 30 11 13 24 20 30
16 7 -4 6 1 -2 10 -16 21 -12 21 -37 -8z"/>
<path d="M1020 1169 c0 -5 5 -7 10 -4 6 3 10 8 10 11 0 2 -4 4 -10 4 -5 0 -10
-5 -10 -11z"/>
<path d="M940 1161 c0 -6 5 -13 10 -16 6 -3 10 1 10 9 0 9 -4 16 -10 16 -5 0
-10 -4 -10 -9z"/>
<path d="M1280 1161 c8 -6 31 -11 50 -11 19 0 52 -4 73 -9 20 -5 37 -5 37 -1
0 4 -19 10 -42 13 -24 3 -63 9 -88 12 -33 5 -41 4 -30 -4z"/>
<path d="M1738 1153 c6 -2 9 -10 6 -15 -4 -7 -2 -8 4 -4 18 11 14 26 -5 25
-11 0 -13 -3 -5 -6z"/>
<path d="M1777 1140 c-3 -11 -2 -22 2 -24 4 -3 8 6 9 20 2 29 -4 31 -11 4z"/>
<path d="M870 1137 c0 -10 7 -29 16 -43 22 -32 12 -42 -15 -15 -12 12 -27 21
-33 21 -7 0 0 -10 15 -23 66 -51 81 -68 70 -75 -7 -5 -9 -13 -4 -21 5 -7 13
-11 19 -7 6 4 8 -2 5 -14 -3 -12 0 -20 6 -20 7 0 9 -5 6 -10 -5 -8 -11 -7 -21
1 -17 14 -29 6 -19 -11 4 -7 15 -10 25 -7 20 5 64 -29 55 -43 -3 -5 -1 -11 5
-15 19 -12 -1 -25 -39 -25 -22 0 -44 6 -51 15 -7 8 -16 13 -20 10 -5 -3 -11
-1 -15 5 -4 6 11 10 40 10 29 0 44 4 40 10 -4 6 -15 8 -26 5 -11 -4 -19 -2
-19 5 0 6 -5 8 -11 5 -5 -4 -28 6 -50 21 -30 21 -43 24 -51 16 -17 -17 -33
-15 -19 2 10 11 8 16 -9 21 -12 4 -24 4 -27 1 -4 -3 1 -6 10 -6 10 0 15 -8 14
-20 -1 -11 -7 -20 -15 -20 -7 0 -11 4 -7 9 3 5 1 12 -5 16 -6 4 -9 -4 -8 -19
1 -13 6 -22 11 -19 4 2 15 -1 23 -8 12 -10 13 -9 8 6 -6 15 -3 17 15 12 17 -4
21 -2 17 9 -8 20 11 17 33 -5 10 -10 25 -21 32 -24 9 -3 3 -7 -14 -12 -17 -4
-33 -3 -41 4 -8 7 -17 8 -20 3 -3 -5 6 -14 19 -20 14 -7 25 -16 25 -22 0 -6 5
-8 10 -5 6 4 8 11 5 16 -13 19 13 8 29 -13 9 -13 14 -16 11 -8 -4 8 2 6 12 -6
15 -18 27 -21 76 -18 37 2 56 0 52 -6 -3 -6 -14 -10 -23 -10 -15 -1 -15 -2 2
-15 17 -13 18 -15 2 -21 -9 -3 -26 -4 -37 -1 -14 4 -19 1 -16 -6 5 -14 -50
-16 -71 -3 -7 4 -31 6 -54 4 -26 -1 -43 2 -46 10 -2 7 2 10 12 6 9 -3 16 -1
16 5 0 6 -9 11 -20 11 -15 0 -20 7 -20 26 0 14 -4 23 -9 20 -4 -3 -16 3 -26
14 -19 21 -8 29 12 9 6 -6 17 -8 24 -3 9 5 5 10 -12 17 -13 6 -29 9 -34 9 -14
-2 -38 62 -25 66 15 5 12 22 -4 22 -8 0 -28 28 -44 62 -17 36 -32 57 -36 50
-4 -7 -2 -12 3 -12 6 0 11 -9 11 -21 0 -11 34 -90 75 -174 l75 -153 56 -1 c31
0 62 -5 70 -12 11 -9 14 -8 14 4 0 12 10 15 46 12 32 -2 47 1 51 11 7 20 20
17 26 -6 7 -27 26 -25 23 3 -2 12 -22 62 -44 110 -23 49 -42 92 -42 96 0 4 -5
12 -12 19 -6 6 -13 19 -14 29 -4 23 -37 83 -46 83 -5 0 -8 7 -8 15 0 8 -9 29
-20 47 -14 23 -20 27 -20 15z"/>
<path d="M995 1140 c-3 -5 -1 -10 6 -10 7 0 28 -12 47 -27 19 -14 48 -27 64
-28 30 -3 45 -11 36 -20 -12 -13 -92 10 -121 34 l-31 26 18 -27 c20 -31 51
-45 130 -58 65 -10 84 -6 42 9 -14 6 -26 15 -26 20 0 6 7 7 17 4 11 -4 14 -3
9 5 -4 6 -21 16 -39 21 -59 18 -122 42 -134 52 -7 7 -13 6 -18 -1z"/>
<path d="M1100 1120 c41 -22 50 -24 50 -9 0 5 -4 8 -9 5 -4 -3 -17 1 -27 9
-10 8 -26 14 -34 14 -8 0 1 -8 20 -19z"/>
<path d="M656 1123 c-13 -13 -5 -23 17 -23 13 0 27 -3 31 -7 3 -4 22 -12 41
-19 29 -9 35 -9 35 2 0 7 -19 18 -42 24 -24 6 -50 15 -59 20 -9 5 -20 6 -23 3z"/>
<path d="M1335 1090 c3 -5 11 -10 16 -10 6 0 7 5 4 10 -3 6 -11 10 -16 10 -6
0 -7 -4 -4 -10z"/>
<path d="M2230 1096 c0 -2 8 -10 18 -17 15 -13 16 -12 3 4 -13 16 -21 21 -21
13z"/>
<path d="M500 1080 c0 -6 -11 -8 -27 -4 -40 10 -25 -2 18 -14 45 -12 70 0 34
16 -16 7 -25 8 -25 2z"/>
<path d="M1452 1074 c-11 -12 -9 -14 8 -14 11 0 20 4 20 9 0 17 -15 19 -28 5z"/>
<path d="M793 1063 c0 -8 7 -11 19 -7 10 3 18 1 18 -5 0 -6 5 -11 12 -11 6 0
4 7 -5 18 -20 22 -44 24 -44 5z"/>
<path d="M1380 1076 c0 -2 11 -6 25 -8 13 -3 22 -1 19 3 -5 9 -44 13 -44 5z"/>
<path d="M1760 1070 c36 -12 62 -12 55 0 -3 6 -23 10 -43 9 -33 -1 -34 -2 -12
-9z"/>
<path d="M2025 1069 c-4 -6 -1 -9 6 -8 8 2 31 -3 52 -10 21 -7 41 -11 43 -8 3
3 -16 12 -42 21 -56 19 -51 19 -59 5z"/>
<path d="M380 1039 c0 -5 5 -7 10 -4 6 3 10 8 10 11 0 2 -4 4 -10 4 -5 0 -10
-5 -10 -11z"/>
<path d="M1731 1041 c-9 -6 8 -15 55 -30 53 -16 69 -18 76 -9 10 16 10 28 1
29 -5 0 -23 2 -41 5 -21 2 -31 0 -27 -6 3 -6 1 -10 -4 -10 -6 0 -11 7 -11 15
0 16 -27 20 -49 6z"/>
<path d="M456 1025 c4 -8 10 -15 15 -15 4 0 6 7 3 15 -4 8 -10 15 -15 15 -4 0
-6 -7 -3 -15z"/>
<path d="M597 1020 c-3 -11 -1 -20 5 -20 6 0 8 -9 5 -20 -3 -11 -1 -20 3 -20
11 0 52 -68 54 -88 1 -10 12 -36 24 -59 12 -23 22 -47 22 -53 0 -13 -65 -11
-92 2 -10 5 -19 4 -23 -2 -14 -22 -125 -3 -125 22 0 17 31 20 49 4 10 -9 21
-16 26 -16 4 0 -9 13 -29 29 -20 16 -37 33 -37 38 0 4 -7 15 -15 24 -8 9 -12
18 -9 21 3 3 -7 13 -22 23 l-28 18 18 -26 c9 -14 17 -38 17 -52 0 -14 7 -28
15 -31 8 -4 15 -10 15 -16 0 -5 -4 -6 -10 -3 -5 3 -10 0 -10 -9 0 -8 5 -16 10
-18 16 -5 21 -51 7 -61 -7 -5 0 -6 18 -2 17 3 85 6 153 6 67 0 122 3 122 6 0
3 -9 17 -19 31 -10 15 -19 32 -20 37 -5 35 -23 85 -31 85 -6 0 -10 6 -10 14 0
7 -12 35 -26 62 -15 27 -32 59 -39 72 -12 22 -13 22 -18 2z"/>
<path d="M1530 1031 c0 -5 7 -14 15 -21 16 -14 18 -10 9 14 -6 17 -24 22 -24
7z"/>
<path d="M1685 1030 c3 -5 10 -10 16 -10 5 0 9 5 9 10 0 6 -7 10 -16 10 -8 0
-12 -4 -9 -10z"/>
<path d="M721 1017 c-14 -14 -14 -37 -1 -37 5 0 6 8 3 17 -5 12 -2 15 10 10 8
-3 34 -11 57 -17 29 -8 40 -16 36 -25 -3 -9 0 -12 9 -9 21 8 6 34 -24 39 -14
3 -38 12 -53 19 -19 10 -29 11 -37 3z"/>
<path d="M2193 1015 c-8 -8 -2 -15 20 -23 39 -15 43 -11 14 14 -17 15 -26 18
-34 9z"/>
<path d="M880 1010 c-13 -8 -12 -10 3 -10 9 0 17 5 17 10 0 12 -1 12 -20 0z"/>
<path d="M1885 1010 c-9 -15 -1 -23 21 -18 15 3 16 4 1 16 -11 9 -17 10 -22 2z"/>
<path d="M344 999 c-3 -6 -1 -16 5 -22 8 -8 11 -5 11 11 0 24 -5 28 -16 11z"/>
<path d="M405 1000 c4 -6 11 -8 16 -5 14 9 11 15 -7 15 -8 0 -12 -5 -9 -10z"/>
<path d="M508 1003 c7 -3 16 -2 19 1 4 3 -2 6 -13 5 -11 0 -14 -3 -6 -6z"/>
<path d="M548 1003 c7 -3 16 -2 19 1 4 3 -2 6 -13 5 -11 0 -14 -3 -6 -6z"/>
<path d="M1390 985 c10 -9 24 -12 40 -8 22 6 22 7 4 14 -10 4 -28 8 -39 8 -17
1 -18 -1 -5 -14z"/>
<path d="M1755 990 c3 -5 8 -10 11 -10 2 0 4 5 4 10 0 6 -5 10 -11 10 -5 0 -7
-4 -4 -10z"/>
<path d="M1787 979 c7 -7 15 -10 18 -7 3 3 -2 9 -12 12 -14 6 -15 5 -6 -5z"/>
<path d="M296 971 c-5 -8 58 -31 85 -31 25 0 -13 20 -39 20 -13 0 -20 4 -17
10 3 6 -1 10 -9 10 -8 0 -17 -4 -20 -9z"/>
<path d="M420 966 c0 -14 4 -16 18 -10 9 4 27 7 40 7 12 -1 22 3 22 8 0 12
-31 11 -50 -1 -9 -6 -17 -5 -22 3 -5 8 -8 6 -8 -7z"/>
<path d="M1730 960 c0 -11 2 -11 38 -15 23 -2 30 9 12 20 -5 3 -10 1 -10 -6 0
-10 -3 -10 -12 -1 -15 15 -28 16 -28 2z"/>
<path d="M1848 963 c6 -2 18 -2 25 0 6 3 1 5 -13 5 -14 0 -19 -2 -12 -5z"/>
<path d="M851 951 c-8 -5 -9 -11 -3 -15 6 -3 14 -1 17 5 4 5 13 8 21 5 7 -3
16 -1 19 4 8 12 -35 13 -54 1z"/>
<path d="M2173 953 c-7 -2 -13 -14 -13 -25 0 -11 -5 -18 -12 -15 -7 2 -12 11
-10 21 2 9 -2 16 -8 16 -6 0 -8 -5 -4 -12 5 -8 2 -9 -9 -5 -10 3 -17 4 -17 2
0 -8 55 -55 65 -55 5 0 3 5 -5 10 -8 5 -10 10 -5 10 6 0 16 14 22 30 6 17 11
30 10 29 -1 0 -8 -3 -14 -6z"/>
<path d="M456 937 c3 -10 9 -15 12 -12 3 3 0 11 -7 18 -10 9 -11 8 -5 -6z"/>
<path d="M1915 940 c-3 -5 1 -10 9 -10 9 0 16 5 16 10 0 6 -4 10 -9 10 -6 0
-13 -4 -16 -10z"/>
<path d="M1950 941 c0 -5 5 -13 10 -16 6 -3 10 -2 10 4 0 5 -4 13 -10 16 -5 3
-10 2 -10 -4z"/>
<path d="M484 928 c-4 -7 -2 -8 4 -4 7 4 12 3 12 -1 0 -5 20 -16 45 -25 61
-23 57 -7 -5 19 -33 14 -52 18 -56 11z"/>
<path d="M875 930 c3 -5 11 -10 16 -10 6 0 7 5 4 10 -3 6 -11 10 -16 10 -6 0
-7 -4 -4 -10z"/>
<path d="M1211 936 c12 -10 60 -16 54 -6 -3 5 -18 10 -32 10 -15 0 -24 -2 -22
-4z"/>
<path d="M1577 928 c6 -7 13 -20 16 -28 4 -10 6 -8 6 6 1 12 -6 25 -15 28 -13
5 -14 3 -7 -6z"/>
<path d="M1840 932 c0 -9 91 -44 98 -37 3 2 -4 7 -14 11 -10 3 -31 12 -46 20
-30 16 -38 17 -38 6z"/>
<path d="M276 920 c12 -4 24 -15 27 -24 8 -21 27 -21 27 0 0 9 5 12 12 8 7 -4
8 -3 4 5 -4 6 -16 9 -26 6 -10 -3 -21 -1 -25 5 -3 5 -14 10 -23 9 -13 0 -12
-2 4 -9z"/>
<path d="M1076 916 c3 -8 17 -16 32 -19 32 -6 43 0 16 8 -10 4 -27 11 -36 16
-13 6 -16 5 -12 -5z"/>
<path d="M1449 922 c11 -8 11 -10 0 -15 -10 -4 -8 -6 4 -6 21 -1 18 21 -4 27
-12 3 -12 2 0 -6z"/>
<path d="M2250 920 c21 -7 22 -8 5 -9 -16 -1 -17 -3 -5 -11 9 -6 17 -5 22 3
10 16 0 27 -25 26 -20 -1 -20 -2 3 -9z"/>
<path d="M370 897 c0 -13 7 -30 15 -37 42 -35 -19 -38 -71 -3 -31 20 -54 25
-54 12 0 -5 6 -9 13 -9 6 0 41 -15 77 -34 48 -24 66 -39 68 -56 2 -18 -1 -21
-18 -16 -53 16 -64 18 -58 11 4 -5 3 -14 -3 -22 -9 -10 -6 -13 15 -13 14 0 35
-5 45 -12 26 -16 58 -3 41 17 -6 8 -9 19 -6 24 4 5 2 12 -4 16 -6 4 -8 11 -5
16 7 10 -15 81 -28 90 -4 3 -7 12 -5 19 2 7 -3 15 -9 17 -8 3 -13 -4 -13 -20z"/>
<path d="M470 901 c0 -6 4 -13 10 -16 6 -3 7 1 4 9 -7 18 -14 21 -14 7z"/>
<path d="M2180 894 c0 -9 121 -74 136 -74 4 0 -2 10 -14 23 -12 13 -19 27 -15
32 5 4 1 4 -7 -1 -25 -14 -42 -14 -36 2 3 8 0 14 -7 14 -7 0 -22 3 -34 6 -13
4 -23 2 -23 -2z"/>
<path d="M610 875 c7 -8 17 -15 22 -15 6 0 5 7 -2 15 -7 8 -17 15 -22 15 -6 0
-5 -7 2 -15z"/>
<path d="M1180 881 c0 -5 16 -11 35 -13 39 -5 34 6 -7 16 -16 3 -28 2 -28 -3z"/>
<path d="M1900 880 c0 -5 5 -10 11 -10 5 0 7 5 4 10 -3 6 -8 10 -11 10 -2 0
-4 -4 -4 -10z"/>
<path d="M1635 869 c-4 -6 -5 -12 -2 -15 2 -3 7 2 10 11 7 17 1 20 -8 4z"/>
<path d="M1950 855 c33 -19 50 -18 26 0 -11 8 -27 15 -35 15 -10 -1 -7 -6 9
-15z"/>
<path d="M1280 851 c0 -5 5 -13 10 -16 6 -3 10 -2 10 4 0 5 -4 13 -10 16 -5 3
-10 2 -10 -4z"/>
<path d="M1466 843 c-6 -14 -5 -15 5 -6 7 7 10 15 7 18 -3 3 -9 -2 -12 -12z"/>
<path d="M1797 844 c-3 -4 -2 -15 3 -25 8 -14 16 -16 39 -9 16 4 33 5 37 2 4
-4 4 -2 0 5 -4 7 2 13 16 16 17 3 15 5 -9 6 -17 0 -35 -4 -39 -10 -5 -8 -10
-6 -16 5 -9 17 -20 20 -31 10z"/>
<path d="M260 821 c14 -11 33 -21 42 -21 9 0 19 -6 21 -12 4 -10 6 -10 6 0 1
7 -7 15 -16 18 -10 3 -31 12 -48 21 l-30 15 25 -21z"/>
<path d="M611 831 c-7 -5 -23 -6 -35 -3 -11 3 -18 1 -13 -3 4 -5 17 -9 30 -11
33 -4 34 -5 12 -15 -16 -7 -13 -8 11 -3 21 3 37 0 47 -10 23 -23 33 -19 12 4
-10 11 -24 20 -31 20 -7 0 -16 4 -19 10 -4 6 1 7 11 3 12 -4 15 -3 10 5 -8 14
-16 15 -35 3z"/>
<path d="M1166 833 c-10 -11 6 -31 21 -26 11 4 14 2 9 -5 -4 -7 0 -15 9 -19
10 -3 21 0 26 8 7 12 12 12 31 0 32 -20 77 -31 83 -20 4 5 -2 9 -12 9 -10 0
-38 10 -63 21 -56 26 -97 39 -104 32z"/>
<path d="M1310 825 c0 -8 5 -15 10 -15 6 0 10 7 10 15 0 8 -4 15 -10 15 -5 0
-10 -7 -10 -15z"/>
<path d="M1492 835 c4 -5 2 -15 -5 -24 -10 -14 -10 -14 4 -4 21 16 59 5 59
-17 0 -10 -8 -21 -17 -23 -16 -4 -16 -5 0 -6 11 0 21 7 24 18 3 13 11 18 21
14 10 -3 3 4 -14 15 -32 20 -84 40 -72 27z"/>
<path d="M1920 836 c0 -2 9 -6 20 -9 11 -3 18 -1 14 4 -5 9 -34 13 -34 5z"/>
<path d="M2222 824 c-12 -8 -20 -20 -17 -25 4 -5 -2 -9 -11 -9 -28 0 -10 -10
24 -14 37 -4 43 9 10 20 l-23 7 23 8 c12 5 22 13 22 19 0 13 -1 13 -28 -6z"/>
<path d="M2431 836 c2 -2 20 -11 39 -20 l35 -17 -25 20 c-14 11 -31 21 -39 21
-8 0 -12 -2 -10 -4z"/>
<path d="M2622 805 c6 -13 15 -22 19 -19 4 2 24 -11 43 -30 20 -19 39 -30 42
-24 3 5 4 11 3 12 -2 2 -25 17 -51 35 -27 18 -48 36 -48 41 0 6 -4 10 -10 10
-6 0 -5 -10 2 -25z"/>
<path d="M793 813 c12 -18 97 -37 110 -24 6 6 7 12 1 12 -5 1 -20 3 -34 5 -14
1 -38 6 -54 10 -19 4 -27 3 -23 -3z"/>
<path d="M1895 813 c4 -9 -2 -13 -17 -14 -26 -1 -20 -3 40 -19 28 -7 40 -15
36 -23 -4 -7 -1 -6 7 2 11 11 11 14 1 18 -7 3 -19 11 -27 20 -11 10 -15 11
-15 2 0 -7 -7 -5 -16 7 -8 10 -13 13 -9 7z"/>
<path d="M1969 796 c11 -13 71 -40 71 -31 0 5 -66 45 -75 45 -4 0 -2 -6 4 -14z"/>
<path d="M2266 801 c-3 -5 4 -11 16 -14 30 -8 35 -1 9 12 -11 6 -22 7 -25 2z"/>
<path d="M1615 790 c28 -12 37 -12 30 0 -3 6 -16 10 -28 9 -21 0 -21 -1 -2 -9z"/>
<path d="M1827 785 c-4 -8 -2 -17 3 -20 6 -4 10 3 10 14 0 25 -6 27 -13 6z"/>
<path d="M258 783 c6 -2 18 -2 25 0 6 3 1 5 -13 5 -14 0 -19 -2 -12 -5z"/>
<path d="M927 766 c-4 -10 -1 -13 9 -9 15 6 19 23 5 23 -5 0 -11 -7 -14 -14z"/>
<path d="M1886 763 c-11 -11 -7 -20 9 -20 8 0 15 4 15 8 0 11 -16 20 -24 12z"/>
<path d="M2640 766 c0 -4 7 -20 14 -35 11 -21 23 -28 45 -29 17 0 34 4 37 10
5 7 1 9 -9 5 -11 -4 -29 5 -52 24 -19 17 -35 28 -35 25z"/>
<path d="M2226 752 c-2 -4 7 -9 20 -10 15 -1 22 2 19 8 -7 12 -32 13 -39 2z"/>
<path d="M2770 710 c11 -11 25 -20 32 -20 6 0 1 9 -12 20 -13 11 -27 20 -32
20 -4 0 1 -9 12 -20z"/>
<path d="M98 713 c7 -3 16 -2 19 1 4 3 -2 6 -13 5 -11 0 -14 -3 -6 -6z"/>
<path d="M1650 710 c-11 -8 -9 -9 13 -8 15 1 27 6 27 10 0 11 -22 10 -40 -2z"/>
<path d="M1758 703 c7 -3 16 -2 19 1 4 3 -2 6 -13 5 -11 0 -14 -3 -6 -6z"/>
<path d="M2755 700 c-3 -5 -1 -10 4 -10 6 0 11 5 11 10 0 6 -2 10 -4 10 -3 0
-8 -4 -11 -10z"/>
<path d="M800 690 l-35 -7 38 -2 c20 0 37 4 37 9 0 6 -1 9 -2 9 -2 -1 -19 -5
-38 -9z"/>
<path d="M980 688 c0 -5 24 -8 54 -8 30 0 56 -4 58 -9 2 -5 8 -3 15 4 10 11 0
14 -57 17 -39 2 -70 0 -70 -4z"/>
<path d="M1325 690 l-120 -5 133 -5 c74 -3 136 -2 138 1 7 12 -30 14 -151 9z"/>
<path d="M730 679 c11 -7 -9 -9 -68 -6 -46 2 -85 0 -88 -5 -3 -4 -13 -4 -22 0
-37 18 -102 -10 -102 -43 0 -7 -7 -18 -15 -25 -8 -7 -12 -16 -9 -21 3 -5 0 -8
-7 -7 -18 4 -22 -19 -4 -25 8 -4 15 -2 15 3 0 5 7 16 16 24 9 9 17 23 18 31 3
22 47 56 60 47 19 -15 98 -15 107 0 7 10 9 9 9 -4 0 -17 2 -17 60 -3 18 5 21
4 11 -3 -7 -5 -10 -15 -6 -21 10 -16 -13 -41 -39 -42 -20 0 -20 -1 -1 -8 19
-8 19 -8 -3 -20 -12 -6 -22 -21 -22 -31 0 -11 -5 -20 -11 -20 -5 0 -8 -4 -5
-9 3 -4 -6 -19 -19 -31 -14 -13 -25 -32 -25 -42 0 -11 -5 -16 -10 -13 -6 4 -9
3 -8 -2 4 -14 -13 -53 -23 -53 -6 0 -7 -5 -3 -12 4 -6 -1 -17 -11 -25 -11 -7
-14 -13 -8 -13 7 0 14 4 18 10 3 5 13 6 23 3 14 -5 15 -3 5 8 -23 23 -14 30
18 14 17 -9 36 -14 42 -12 7 2 -5 10 -25 17 -37 13 -47 25 -30 32 9 3 72 93
72 103 0 3 18 33 40 66 22 33 40 64 40 68 0 5 9 20 21 35 22 28 18 46 -9 46
-15 0 -15 -2 -2 -11z"/>
<path d="M878 683 c6 -2 18 -2 25 0 6 3 1 5 -13 5 -14 0 -19 -2 -12 -5z"/>
<path d="M1138 683 c7 -3 16 -2 19 1 4 3 -2 6 -13 5 -11 0 -14 -3 -6 -6z"/>
<path d="M1730 680 c0 -12 107 -14 113 -2 3 4 -22 8 -54 9 -33 1 -59 -2 -59
-7z"/>
<path d="M2660 680 c0 -5 5 -10 11 -10 5 0 7 5 4 10 -3 6 -8 10 -11 10 -2 0
-4 -4 -4 -10z"/>
<path d="M1868 673 c6 -2 18 -2 25 0 6 3 1 5 -13 5 -14 0 -19 -2 -12 -5z"/>
<path d="M2055 670 c50 -3 97 -2 105 2 8 4 -32 7 -90 6 l-105 -1 90 -7z"/>
<path d="M2410 676 c0 -2 7 -6 15 -10 8 -3 15 -1 15 4 0 6 -7 10 -15 10 -8 0
-15 -2 -15 -4z"/>
<path d="M793 659 c-19 -7 -43 -37 -43 -53 0 -3 8 -6 18 -6 15 0 15 2 2 11
-12 8 -10 9 8 4 12 -3 22 -2 22 2 0 5 15 14 33 21 38 14 58 16 39 3 -10 -6
-10 -10 3 -21 12 -10 15 -10 15 2 0 9 11 14 30 14 17 0 30 -3 30 -8 0 -4 5 -8
11 -8 5 0 7 5 4 10 -8 12 5 13 24 1 15 -10 7 -31 -12 -31 -7 0 -30 -9 -52 -20
-22 -11 -45 -20 -52 -20 -6 0 -14 -4 -18 -9 -7 -13 36 0 109 33 67 30 70 30
59 14 -4 -7 -8 -18 -9 -23 -2 -11 -40 -71 -62 -95 -7 -8 -18 -23 -25 -33 -9
-12 -27 -18 -65 -20 -28 -1 -52 -6 -52 -11 0 -5 23 -6 50 -3 28 3 50 4 50 1 0
-3 -16 -12 -35 -20 -19 -8 -35 -21 -35 -30 0 -14 2 -14 16 0 28 28 36 17 14
-19 -12 -19 -19 -35 -15 -35 3 0 -1 -8 -11 -18 -10 -9 -21 -17 -25 -17 -16 0
-20 -14 -9 -34 8 -16 8 -21 -1 -21 -7 0 -10 -3 -6 -6 13 -14 27 7 17 27 -9 16
-8 19 12 16 12 -1 23 3 23 8 0 14 91 170 130 225 30 41 41 64 74 144 14 34 6
47 -13 21 -12 -17 -16 -17 -31 -5 -19 16 -185 23 -222 9z"/>
<path d="M1105 646 c-13 -13 -22 -25 -20 -28 7 -7 -33 -75 -72 -123 -34 -42
-83 -129 -83 -146 0 -6 -13 -30 -30 -54 -16 -24 -30 -48 -30 -54 0 -5 -9 -16
-20 -24 -32 -22 -5 -38 45 -27 22 5 68 15 103 21 34 6 62 15 62 19 0 13 -116
-2 -157 -21 -58 -26 -59 -25 -23 21 19 24 36 37 45 33 8 -3 15 -1 15 5 0 6 -6
12 -12 15 -10 3 -9 9 4 23 9 10 25 42 36 69 11 28 25 49 30 48 6 -1 7 7 4 19
-4 16 -2 19 8 13 9 -5 11 -4 6 4 -5 7 5 25 23 43 17 18 31 35 31 39 0 5 11 25
25 45 14 20 23 40 20 44 -3 4 2 11 11 14 21 8 24 8 24 -5 0 -5 -6 -7 -12 -3
-7 4 -10 4 -6 -1 12 -13 230 -18 238 -5 5 7 11 5 21 -6 12 -15 12 -17 0 -9
-11 6 -13 4 -8 -9 4 -10 -1 -24 -14 -37 -11 -11 -19 -28 -17 -37 2 -10 19 11
46 54 47 78 50 88 25 80 -10 -3 -40 -6 -68 -7 -27 -1 -58 -7 -69 -12 -13 -6
-16 -6 -12 2 5 7 -3 11 -21 11 -15 1 -49 3 -75 5 -39 4 -52 0 -73 -19z"/>
<path d="M1504 658 c-3 -4 -11 -5 -19 -1 -10 3 -20 -6 -30 -31 -9 -20 -43 -74
-77 -119 -33 -45 -67 -97 -75 -116 -8 -19 -25 -49 -36 -65 -12 -17 -23 -37
-25 -44 -1 -6 -11 -21 -22 -32 -11 -11 -20 -26 -20 -34 0 -18 -32 -76 -42 -76
-5 0 -8 -8 -8 -17 0 -11 3 -14 8 -7 4 6 18 10 32 9 14 -1 31 3 39 9 11 8 13 8
7 -1 -5 -10 3 -13 31 -13 22 0 45 6 52 13 8 7 11 7 8 1 -4 -7 2 -14 14 -17 16
-4 18 -3 9 7 -8 10 -5 13 12 13 55 1 64 3 49 12 -8 5 -54 7 -102 4 -50 -2 -96
0 -106 6 -20 11 -16 13 40 25 34 8 36 26 2 26 -19 0 -23 4 -18 18 4 9 12 22
19 27 7 6 14 17 16 25 2 8 12 23 22 32 10 10 15 18 10 18 -5 0 -4 4 2 8 6 4
21 30 34 57 13 28 41 70 62 94 21 24 38 50 38 57 0 7 8 19 19 26 10 7 21 22
25 33 5 19 13 21 78 18 40 -2 77 -8 82 -13 6 -6 15 -10 21 -10 5 0 4 4 -4 9
-9 6 0 10 29 13 23 2 44 -1 47 -6 3 -5 1 -6 -5 -2 -7 4 -19 -11 -32 -39 -13
-28 -27 -45 -38 -45 -11 0 -13 3 -5 8 8 5 3 11 -13 19 -21 10 -23 9 -15 -1 6
-7 8 -15 5 -19 -3 -3 4 -8 15 -12 12 -3 21 -11 21 -16 0 -6 6 -7 13 -4 6 4 4
0 -5 -8 -10 -8 -15 -16 -12 -19 3 -3 -7 -15 -22 -27 -15 -12 -24 -24 -21 -27
4 -4 -7 -23 -23 -42 -16 -19 -27 -39 -25 -43 3 -4 -5 -9 -16 -12 -12 -3 -18
-10 -14 -16 3 -6 1 -11 -5 -11 -5 0 -18 -16 -27 -35 -9 -19 -21 -35 -26 -35
-5 0 -7 -6 -4 -14 3 -8 3 -17 -1 -21 -4 -4 -8 -11 -8 -16 -1 -5 -2 -12 -3 -15
0 -4 -8 -1 -16 6 -13 11 -13 15 -3 21 10 7 8 9 -5 9 -14 0 -17 5 -11 23 l6 22
-26 -24 c-31 -29 -32 -31 -6 -24 16 4 19 2 14 -11 -4 -11 -2 -16 7 -14 10 2
13 -6 12 -24 -2 -32 13 -37 22 -8 3 11 10 20 15 20 5 0 12 10 16 22 4 13 14
34 24 48 177 263 205 311 188 323 -9 6 -8 7 5 3 13 -4 21 2 30 22 6 15 17 33
24 40 20 21 15 32 -14 32 -16 -1 -57 2 -93 5 -107 10 -142 10 -146 3z"/>
<path d="M1947 653 c-2 -1 -33 -3 -71 -4 -66 -2 -68 -3 -91 -38 -47 -74 -117
-178 -153 -228 -20 -28 -46 -66 -57 -85 -43 -73 -74 -132 -71 -135 2 -2 34 5
71 15 43 12 62 21 52 25 -9 3 -19 2 -23 -4 -5 -8 -40 -4 -52 6 -6 5 21 55 30
55 4 0 8 7 8 16 0 8 4 12 10 9 5 -3 7 0 4 9 -3 8 4 23 15 33 12 9 21 24 21 33
0 8 21 38 48 65 26 27 52 63 57 80 6 16 17 29 24 27 20 -4 141 37 171 58 14
10 39 20 55 22 17 1 29 8 28 14 -1 7 8 9 22 6 14 -2 25 -9 25 -14 0 -20 -32
-78 -41 -72 -10 6 -50 -14 -60 -29 -9 -14 -31 2 -23 16 4 8 2 7 -7 -1 -11 -10
-11 -14 -1 -21 10 -6 10 -10 -2 -20 -8 -7 -19 -10 -24 -7 -10 6 -68 -19 -77
-34 -3 -4 2 -10 10 -14 9 -3 15 1 15 10 0 12 6 15 25 10 17 -4 23 -3 20 6 -3
8 5 14 22 15 15 0 35 10 44 22 9 11 20 17 24 13 5 -4 5 -1 1 6 -4 6 -3 12 2
12 6 0 12 -7 16 -15 3 -8 9 -15 14 -15 9 0 38 47 69 112 l22 48 -85 -3 c-47
-1 -86 -3 -87 -4z m63 -30 c0 -2 -14 -3 -30 -1 -17 1 -34 -2 -38 -7 -11 -16
-47 -41 -38 -27 4 6 2 12 -3 12 -6 0 -11 -4 -11 -10 0 -5 -10 -14 -21 -21 -17
-9 -23 -8 -30 2 -6 11 -9 10 -15 -4 -4 -10 -13 -16 -20 -13 -8 3 -14 1 -14 -5
0 -6 -4 -7 -10 -4 -6 4 -2 15 10 27 11 12 20 25 20 30 0 4 18 8 39 8 22 0 43
5 47 11 3 6 15 9 25 6 10 -3 21 -2 24 2 4 8 65 2 65 -6z m-450 -437 c0 -2 -9
-6 -20 -9 -11 -3 -18 -1 -14 4 5 9 34 13 34 5z"/>
<path d="M253 642 c-39 -6 -25 -20 15 -14 20 2 45 5 55 5 9 1 17 5 17 9 0 8
-35 8 -87 0z"/>
<path d="M505 631 c-8 -14 10 -22 30 -15 13 5 14 8 3 15 -17 11 -26 11 -33 0z"/>
<path d="M905 620 c-3 -5 -2 -10 4 -10 5 0 13 5 16 10 3 6 2 10 -4 10 -5 0
-13 -4 -16 -10z"/>
<path d="M2545 610 c-18 -20 -41 -28 -30 -10 4 6 -1 7 -11 3 -15 -5 -15 -7 0
-15 16 -9 66 16 66 33 0 13 -5 11 -25 -11z"/>
<path d="M796 595 c-15 -8 -34 -15 -41 -15 -7 0 -18 -7 -25 -15 -10 -12 -10
-15 4 -15 9 0 16 5 16 11 0 5 3 8 8 5 4 -2 23 3 42 12 19 9 44 19 55 23 18 6
17 7 -5 8 -14 0 -38 -6 -54 -14z"/>
<path d="M1525 590 c-27 -7 -28 -8 -5 -8 14 0 34 3 45 8 25 11 2 11 -40 0z"/>
<path d="M1595 591 c-6 -5 -46 -26 -90 -46 -44 -20 -66 -33 -50 -30 53 12 60
13 73 14 7 1 11 5 8 10 -3 5 4 12 17 15 25 7 77 45 62 46 -6 0 -15 -4 -20 -9z"/>
<path d="M2025 590 c3 -5 8 -10 11 -10 2 0 4 5 4 10 0 6 -5 10 -11 10 -5 0 -7
-4 -4 -10z"/>
<path d="M340 579 c0 -5 5 -7 10 -4 6 3 10 8 10 11 0 2 -4 4 -10 4 -5 0 -10
-5 -10 -11z"/>
<path d="M500 568 c0 -21 -5 -28 -19 -28 -11 0 -22 -4 -25 -9 -4 -5 10 -5 32
0 85 21 121 26 126 17 2 -5 3 -3 2 4 -3 14 -11 14 -69 5 -20 -3 -35 -2 -33 2
3 4 1 13 -5 21 -6 11 -9 8 -9 -12z"/>
<path d="M1175 572 c-25 -13 -31 -23 -18 -35 3 -4 12 2 20 13 8 11 26 20 41
20 15 0 34 4 42 10 23 14 -56 7 -85 -8z"/>
<path d="M1311 574 c-18 -8 -31 -17 -28 -20 9 -9 55 8 61 22 3 8 4 14 3 13 -1
0 -17 -7 -36 -15z"/>
<path d="M2000 560 c-9 -6 -10 -10 -3 -10 6 0 15 5 18 10 8 12 4 12 -15 0z"/>
<path d="M2295 550 c-14 -15 -15 -20 -4 -20 8 0 20 9 27 20 7 11 8 20 4 20 -5
0 -17 -9 -27 -20z"/>
<path d="M2460 550 c20 -13 33 -13 25 0 -3 6 -14 10 -23 10 -15 0 -15 -2 -2
-10z"/>
<path d="M1218 543 c-10 -2 -18 -9 -18 -14 0 -12 2 -12 41 6 33 14 18 19 -23
8z"/>
<path d="M1890 530 c-14 -11 -35 -20 -47 -20 -12 0 -25 -5 -28 -11 -4 -6 -13
-8 -20 -5 -15 5 -42 -21 -31 -31 3 -3 6 -1 6 5 0 7 15 12 36 12 23 0 48 10 72
27 20 15 39 28 41 30 2 2 2 5 0 7 -2 3 -15 -4 -29 -14z"/>
<path d="M2230 544 c0 -1 6 -7 14 -13 10 -9 15 -8 19 2 3 8 -3 13 -14 13 -11
0 -19 -1 -19 -2z"/>
<path d="M2504 535 c-10 -8 -14 -15 -8 -15 6 0 17 7 24 15 16 19 9 19 -16 0z"/>
<path d="M706 502 c-37 -35 -38 -36 -20 -7 13 22 13 26 2 15 -8 -8 -28 -40
-44 -70 -16 -30 -33 -58 -37 -61 -5 -4 -4 -9 1 -13 14 -9 93 24 86 35 -3 5
-12 2 -20 -6 -21 -20 -30 -19 -30 5 0 12 5 19 13 16 6 -3 14 3 17 12 3 9 24
36 46 59 49 53 37 65 -14 15z"/>
<path d="M1316 525 c-3 -8 -9 -15 -13 -14 -19 3 -47 -3 -35 -8 6 -2 10 -9 6
-14 -3 -5 0 -9 5 -9 6 0 11 6 11 13 0 7 10 13 21 14 l21 2 -21 -23 c-11 -12
-21 -30 -21 -40 0 -10 -9 -20 -20 -23 -11 -3 -20 -14 -20 -24 0 -12 -7 -19
-20 -19 -13 0 -18 -5 -14 -15 4 -8 2 -15 -3 -15 -5 0 -9 -10 -10 -21 -1 -12
-13 -34 -26 -48 -14 -14 -22 -32 -20 -38 3 -7 -3 -20 -11 -29 -9 -8 -16 -12
-16 -7 -1 4 -7 -4 -16 -19 -9 -17 -20 -25 -29 -22 -8 4 -15 1 -15 -5 0 -6 10
-11 21 -11 18 0 19 -2 9 -15 -11 -13 -10 -14 3 -9 9 3 19 14 22 24 3 10 17 30
30 46 14 16 25 35 25 42 0 6 5 12 10 12 5 0 9 3 9 8 -3 19 3 33 29 63 15 18
25 33 22 33 -3 1 8 17 23 37 15 20 27 39 27 43 0 4 11 22 25 40 15 20 23 40
19 50 -8 20 -20 21 -28 1z"/>
<path d="M390 510 c0 -13 5 -18 15 -14 8 4 15 12 15 20 0 8 -7 14 -15 14 -8 0
-15 -9 -15 -20z"/>
<path d="M535 513 c-20 -15 -19 -15 5 -9 14 3 34 6 45 7 20 0 20 0 0 9 -27 12
-27 12 -50 -7z"/>
<path d="M907 523 c-3 -3 -3 -11 0 -19 7 -18 33 -18 33 0 0 14 -24 29 -33 19z"/>
<path d="M1078 518 c-16 -5 -28 -14 -28 -18 0 -11 58 8 66 21 6 11 -3 10 -38
-3z"/>
<path d="M2200 520 c-9 -6 -10 -10 -3 -10 6 0 15 5 18 10 8 12 4 12 -15 0z"/>
<path d="M283 510 c-28 -11 -30 -19 -3 -17 11 1 22 7 24 14 3 7 4 13 3 12 -1
0 -12 -4 -24 -9z"/>
<path d="M1550 510 c0 -5 5 -10 10 -10 6 0 10 5 10 10 0 6 -4 10 -10 10 -5 0
-10 -4 -10 -10z"/>
<path d="M2274 499 c-3 -6 -15 -9 -25 -6 -12 3 -17 1 -13 -5 5 -7 -2 -9 -18
-5 -30 8 -60 -16 -33 -26 13 -6 115 38 115 49 0 8 -19 4 -26 -7z m-64 -29 c0
-5 -5 -10 -11 -10 -5 0 -7 5 -4 10 3 6 8 10 11 10 2 0 4 -4 4 -10z"/>
<path d="M2473 497 c-4 -7 -24 -23 -43 -35 -44 -27 -33 -29 14 -2 19 12 37 27
40 35 7 18 0 20 -11 2z"/>
<path d="M2125 485 c-22 -8 -41 -15 -42 -15 -2 0 -3 -4 -3 -9 0 -13 60 7 80
25 17 17 15 17 -35 -1z"/>
<path d="M414 475 c-28 -13 -28 -13 19 -12 26 1 47 7 47 12 0 14 -33 14 -66 0z"/>
<path d="M500 482 c0 -11 39 -12 45 -1 4 5 -5 9 -19 9 -14 0 -26 -4 -26 -8z"/>
<path d="M800 480 c0 -5 5 -10 11 -10 5 0 7 5 4 10 -3 6 -8 10 -11 10 -2 0 -4
-4 -4 -10z"/>
<path d="M1176 481 c-3 -4 -24 -6 -46 -4 -22 2 -40 0 -40 -6 0 -17 17 -21 45
-11 23 9 26 8 22 -4 -4 -9 -2 -18 4 -21 5 -4 8 -1 7 7 -2 7 3 12 10 11 6 -2
12 2 12 8 0 5 5 7 10 4 6 -3 10 -2 10 3 0 13 -28 23 -34 13z"/>
<path d="M1530 480 c0 -5 10 -10 23 -10 18 0 19 2 7 10 -19 13 -30 13 -30 0z"/>
<path d="M1995 481 c3 -5 1 -12 -4 -16 -6 -3 -8 -12 -5 -20 3 -7 -4 -18 -16
-25 -13 -7 -19 -17 -16 -26 3 -8 2 -13 -3 -10 -9 6 -53 -40 -71 -75 -20 -39
-52 -69 -74 -69 -12 0 -28 -5 -36 -11 -12 -9 -11 -10 8 -6 22 5 27 -5 22 -42
-1 -9 8 -6 29 8 37 27 42 49 6 25 -14 -9 -25 -12 -25 -7 0 10 41 47 55 49 6 0
15 2 20 2 6 1 16 11 22 22 11 16 10 18 -2 14 -11 -5 -13 -2 -9 10 3 9 10 16
15 16 5 0 8 5 7 12 -2 6 5 14 16 16 11 2 16 0 12 -7 -4 -6 -5 -11 -3 -11 2 0
23 36 46 80 39 74 40 80 21 80 -12 0 -19 -4 -15 -9z"/>
<path d="M895 470 c3 -5 11 -10 16 -10 6 0 7 5 4 10 -3 6 -11 10 -16 10 -6 0
-7 -4 -4 -10z"/>
<path d="M730 439 c-14 -10 -19 -19 -12 -19 6 0 12 -8 12 -17 0 -14 2 -15 9
-5 5 8 19 11 37 8 27 -5 27 -5 -3 6 -29 10 -31 12 -16 23 9 7 12 15 7 18 -5 3
-21 -3 -34 -14z"/>
<path d="M1245 451 c-6 -11 9 -23 19 -14 9 9 7 23 -3 23 -6 0 -12 -4 -16 -9z"/>
<path d="M287 443 c-4 -3 -7 -11 -7 -17 0 -6 5 -5 12 2 6 6 9 14 7 17 -3 3 -9
2 -12 -2z"/>
<path d="M370 443 c-18 -4 -45 -43 -30 -43 5 0 10 4 10 9 0 12 36 21 47 11 13
-12 103 -21 103 -10 0 13 -31 21 -68 16 -18 -2 -36 2 -40 8 -4 7 -14 10 -22 9z"/>
<path d="M2100 439 c0 -5 5 -7 10 -4 6 3 10 8 10 11 0 2 -4 4 -10 4 -5 0 -10
-5 -10 -11z"/>
<path d="M500 436 c0 -10 28 -13 41 -5 10 6 7 9 -13 9 -16 0 -28 -2 -28 -4z"/>
<path d="M1190 419 c-25 -14 -28 -18 -10 -13 14 4 32 8 41 8 10 0 15 6 12 13
-3 7 -6 13 -7 13 0 -1 -17 -10 -36 -21z"/>
<path d="M1445 430 c-16 -7 -17 -9 -3 -9 9 -1 20 4 23 9 7 11 7 11 -20 0z"/>
<path d="M1506 427 c3 -10 9 -15 12 -12 3 3 0 11 -7 18 -10 9 -11 8 -5 -6z"/>
<path d="M1590 431 c0 -7 -10 -9 -27 -6 -27 5 -28 5 -4 -5 24 -11 53 2 38 17
-4 3 -7 1 -7 -6z"/>
<path d="M1056 417 c-22 -7 -41 -18 -44 -26 -3 -9 0 -11 7 -6 7 4 36 15 64 26
57 20 36 25 -27 6z"/>
<path d="M235 410 c-4 -6 6 -10 22 -10 22 0 25 2 13 10 -19 12 -27 12 -35 0z"/>
<path d="M2218 398 c-13 -13 -17 -17 -8 -10 9 6 19 10 22 7 3 -3 8 1 11 10 9
21 2 19 -25 -7z"/>
<path d="M1450 400 c0 -5 -7 -7 -15 -4 -8 3 -30 -4 -50 -16 -34 -21 -46 -40
-25 -40 6 0 10 4 10 8 0 10 51 28 105 38 32 6 36 9 20 15 -28 11 -45 11 -45
-1z"/>
<path d="M1761 401 c-7 -5 -9 -11 -5 -14 5 -3 15 1 22 9 14 16 5 18 -17 5z"/>
<path d="M2349 389 c-23 -19 -23 -20 -2 -10 12 6 25 16 28 21 10 16 -1 12 -26
-11z"/>
<path d="M1526 387 c2 -7 15 -13 27 -14 12 0 16 1 9 4 -6 3 -10 9 -6 14 3 5
-4 9 -15 9 -13 0 -18 -5 -15 -13z"/>
<path d="M1726 383 c-6 -14 -5 -15 5 -6 7 7 10 15 7 18 -3 3 -9 -2 -12 -12z"/>
<path d="M306 375 c-3 -8 -1 -15 4 -15 6 0 10 7 10 15 0 8 -2 15 -4 15 -2 0
-6 -7 -10 -15z"/>
<path d="M380 380 c-13 -8 -13 -10 2 -10 9 0 20 5 23 10 8 13 -5 13 -25 0z"/>
<path d="M980 380 c0 -5 5 -10 10 -10 6 0 10 5 10 10 0 6 -4 10 -10 10 -5 0
-10 -4 -10 -10z"/>
<path d="M1115 382 c-11 -2 -25 -9 -32 -14 -7 -5 -21 -7 -32 -3 -21 6 -74 -16
-87 -36 -4 -8 -3 -9 5 -5 6 4 19 2 28 -6 12 -9 15 -9 9 0 -4 7 -2 12 7 12 12
0 115 38 126 47 9 6 -5 9 -24 5z"/>
<path d="M495 369 c-4 -6 -5 -12 -2 -15 2 -3 7 2 10 11 7 17 1 20 -8 4z"/>
<path d="M695 370 l-30 -5 38 -12 c22 -6 39 -7 43 -2 3 5 9 7 14 4 5 -3 11 -1
15 4 9 16 37 0 30 -17 -3 -9 -3 -13 1 -9 4 4 14 1 22 -6 11 -9 10 -4 -2 16
-23 35 -52 41 -131 27z"/>
<path d="M1780 371 c0 -5 5 -13 10 -16 6 -3 10 -2 10 4 0 5 -4 13 -10 16 -5 3
-10 2 -10 -4z"/>
<path d="M1836 365 c-19 -15 -19 -15 1 -15 11 0 23 7 27 15 7 19 -3 19 -28 0z"/>
<path d="M1660 356 c6 -8 19 -12 27 -9 14 6 14 8 -3 14 -30 12 -37 10 -24 -5z"/>
<path d="M1402 333 c-35 -14 -61 -27 -59 -30 3 -2 33 8 68 22 38 15 65 21 67
15 5 -15 22 -12 22 5 0 21 -25 18 -98 -12z"/>
<path d="M415 340 c3 -5 8 -10 11 -10 2 0 4 5 4 10 0 6 -5 10 -11 10 -5 0 -7
-4 -4 -10z"/>
<path d="M643 335 c0 -8 4 -15 9 -15 4 0 8 7 8 15 0 8 -4 15 -8 15 -5 0 -9 -7
-9 -15z"/>
<path d="M1325 340 c3 -5 8 -10 11 -10 2 0 4 5 4 10 0 6 -5 10 -11 10 -5 0 -7
-4 -4 -10z"/>
<path d="M2165 339 c-4 -6 -5 -12 -2 -15 2 -3 7 2 10 11 7 17 1 20 -8 4z"/>
<path d="M480 329 c0 -5 5 -7 10 -4 6 3 10 8 10 11 0 2 -4 4 -10 4 -5 0 -10
-5 -10 -11z"/>
<path d="M1093 333 c-18 -7 -16 -23 2 -23 8 0 15 7 15 15 0 8 -1 15 -2 14 -2
0 -9 -3 -15 -6z"/>
<path d="M1163 333 c-13 -2 -23 -11 -23 -20 0 -12 3 -13 13 -4 8 6 16 8 19 5
3 -2 8 2 11 11 4 8 5 14 4 14 -1 -1 -12 -4 -24 -6z"/>
<path d="M1710 320 c0 -5 7 -7 15 -4 8 4 15 8 15 10 0 2 -7 4 -15 4 -8 0 -15
-4 -15 -10z"/>
<path d="M410 300 c0 -5 14 -10 30 -10 17 0 30 5 30 10 0 6 -13 10 -30 10 -16
0 -30 -4 -30 -10z"/>
<path d="M590 306 c0 -2 7 -7 16 -10 8 -3 12 -2 9 4 -6 10 -25 14 -25 6z"/>
<path d="M705 299 c-4 -6 -13 -8 -21 -5 -8 3 -14 2 -14 -3 0 -14 23 -27 50
-27 14 -1 17 1 8 3 -21 5 -23 14 -6 31 9 9 9 12 1 12 -7 0 -15 -5 -18 -11z"/>
<path d="M1304 301 c3 -5 -6 -17 -19 -27 -33 -25 -35 -53 -2 -31 12 8 22 20
22 26 0 6 6 15 13 20 11 7 10 9 -3 14 -9 4 -14 3 -11 -2z"/>
<path d="M1646 295 c4 -8 8 -15 10 -15 2 0 4 7 4 15 0 8 -4 15 -10 15 -5 0 -7
-7 -4 -15z"/>
<path d="M1675 300 c-3 -6 1 -7 9 -4 18 7 21 14 7 14 -6 0 -13 -4 -16 -10z"/>
<path d="M1817 296 c-8 -8 -23 -13 -33 -12 -11 2 -13 1 -6 -1 7 -3 9 -9 6 -15
-3 -5 9 -2 27 7 42 22 42 22 30 29 -5 3 -16 0 -24 -8z"/>
<path d="M1095 287 c-11 -7 -22 -13 -24 -14 -1 -1 0 -6 4 -12 7 -12 55 15 55
30 0 12 -10 11 -35 -4z"/>
<path d="M1465 274 c-20 -15 -12 -17 19 -5 11 4 15 10 10 13 -5 4 -18 0 -29
-8z"/>
<path d="M494 264 c-18 -14 -18 -15 4 -4 12 6 22 13 22 15 0 8 -5 6 -26 -11z"/>
<path d="M531 276 c12 -10 59 -15 59 -6 0 5 -14 10 -32 10 -17 0 -29 -2 -27
-4z"/>
<path d="M2026 245 c-62 -22 -104 -45 -82 -45 21 0 86 24 86 32 0 4 8 8 18 8
15 0 67 29 52 29 -3 1 -36 -10 -74 -24z"/>
<path d="M2141 257 c-6 -8 -9 -16 -6 -18 2 -3 -7 -6 -21 -7 -32 -2 -44 -10
-43 -25 0 -9 2 -9 6 1 2 6 11 12 18 12 7 0 15 -6 18 -12 3 -9 10 -8 26 6 11
11 19 21 16 24 -3 3 0 11 6 19 7 8 8 13 1 13 -5 0 -15 -6 -21 -13z"/>
<path d="M611 256 c12 -10 59 -15 59 -6 0 5 -14 10 -32 10 -17 0 -29 -2 -27
-4z"/>
<path d="M1700 245 c-7 -8 -21 -15 -31 -15 -10 0 -21 -4 -24 -10 -10 -17 17
-11 70 15 42 21 46 25 24 25 -15 0 -32 -7 -39 -15z"/>
<path d="M555 240 c3 -5 8 -10 11 -10 2 0 4 5 4 10 0 6 -5 10 -11 10 -5 0 -7
-4 -4 -10z"/>
<path d="M745 240 c-7 -12 2 -12 30 0 19 8 19 9 -2 9 -12 1 -25 -3 -28 -9z"/>
<path d="M610 220 c-16 -5 0 -6 40 -3 36 2 67 6 69 9 8 7 -83 2 -109 -6z"/>
<path d="M1730 220 c-13 -8 -12 -10 3 -10 9 0 17 5 17 10 0 12 -1 12 -20 0z"/>
<path d="M700 190 c0 -16 50 -24 63 -10 9 10 9 11 -3 8 -8 -3 -25 -1 -37 3
-14 5 -23 5 -23 -1z"/>
<path d="M1018 193 c6 -2 18 -2 25 0 6 3 1 5 -13 5 -14 0 -19 -2 -12 -5z"/>
<path d="M1660 190 c-8 -5 -10 -10 -5 -10 6 0 17 5 25 10 8 5 11 10 5 10 -5 0
-17 -5 -25 -10z"/>
<path d="M1766 191 c-12 -5 -15 -10 -9 -14 6 -4 16 0 23 8 14 17 13 17 -14 6z"/>
<path d="M806 183 c-11 -11 -6 -23 9 -23 8 0 15 4 15 9 0 13 -16 22 -24 14z"/>
<path d="M952 183 c-6 -2 -10 -8 -7 -13 6 -10 55 0 55 11 0 10 -27 11 -48 2z"/>
<path d="M1706 165 c-11 -8 -15 -15 -10 -15 6 0 19 7 30 15 10 8 15 14 9 14
-5 0 -19 -6 -29 -14z"/>
<path d="M910 159 c0 -5 5 -7 10 -4 6 3 10 8 10 11 0 2 -4 4 -10 4 -5 0 -10
-5 -10 -11z"/>
<path d="M1588 138 c45 -7 67 -7 75 1 8 8 -9 11 -63 10 l-75 -2 63 -9z"/>
<path d="M830 121 c0 -5 7 -12 16 -15 14 -5 15 -4 4 9 -14 17 -20 19 -20 6z"/>
<path d="M1030 120 c0 -5 9 -10 21 -10 11 0 17 5 14 10 -3 6 -13 10 -21 10 -8
0 -14 -4 -14 -10z"/>
<path d="M870 110 c0 -5 6 -10 13 -10 6 0 23 -3 37 -6 23 -5 23 -5 -4 10 -33
18 -46 20 -46 6z"/>
<path d="M1415 100 c11 -5 14 -9 8 -9 -7 -1 -13 -6 -13 -12 0 -8 5 -8 15 1 22
18 18 30 -7 29 -22 0 -22 -1 -3 -9z"/>
<path d="M1584 95 c10 -8 24 -11 29 -8 6 4 2 10 -9 14 -31 12 -40 9 -20 -6z"/>
<path d="M960 90 c0 -5 9 -10 21 -10 11 0 17 5 14 10 -3 6 -13 10 -21 10 -8 0
-14 -4 -14 -10z"/>
<path d="M1175 90 c5 -8 1 -18 -11 -27 -17 -13 -17 -13 6 -10 27 4 35 37 11
45 -9 3 -11 0 -6 -8z"/>
<path d="M1215 80 c-3 -5 1 -10 9 -10 8 0 18 5 21 10 3 6 -1 10 -9 10 -8 0
-18 -4 -21 -10z"/>
<path d="M1525 80 c-13 -6 -15 -9 -5 -9 8 0 22 4 30 9 18 12 2 12 -25 0z"/>
<path d="M1480 66 c0 -9 5 -16 10 -16 6 0 10 4 10 9 0 6 -4 13 -10 16 -5 3
-10 -1 -10 -9z"/>
<path d="M1400 49 c0 -5 5 -7 10 -4 6 3 10 8 10 11 0 2 -4 4 -10 4 -5 0 -10
-5 -10 -11z"/>
</g>
</svg>
